<?xml version="1.0" encoding="utf-8"?>
<svg version="1.1" xmlns="http://www.w3.org/2000/svg" xmlns:xlink="http://www.w3.org/1999/xlink"
	 viewBox="0 0 128 128" xml:space="preserve">
	<g>
		<path d="M64,0.3C28.7,0.3,0,28.8,0,64c0,35.2,28.7,63.7,64,63.7c35.3,0,64-28.5,64-63.7C128,28.8,99.3,0.3,64,0.3z
					 M64,121.3C32.2,121.3,6.4,95.7,6.4,64C6.4,32.3,32.2,6.7,64,6.7c31.8,0,57.6,25.7,57.6,57.3C121.6,95.7,95.8,121.3,64,121.3z
					 M85.9,48.1L81,43.3c-0.9-0.9-2.3-0.9-3.2,0L64,57L50.2,43.3c-0.9-0.9-2.3-0.9-3.2,0l-4.9,4.8c-0.9,0.9-0.9,2.3,0,3.2L55.9,65
					L42.1,78.8c-0.9,0.9-0.9,2.3,0,3.2l4.9,4.8c0.9,0.9,2.3,0.9,3.2,0L64,73.1l13.8,13.7c0.9,0.9,2.3,0.9,3.2,0l4.9-4.8
					c0.9-0.9,0.9-2.3,0-3.2L72.1,65l13.8-13.7C86.8,50.4,86.8,49,85.9,48.1z"/>
	</g>
</svg>
