<?xml version="1.0" encoding="utf-8"?>
<svg version="1.1" xmlns="http://www.w3.org/2000/svg" xmlns:xlink="http://www.w3.org/1999/xlink"
	 viewBox="0 0 128 128" xml:space="preserve">
	<g>
		<path d="M64,32.2c-4.4,0-8,3.3-8,7.3v24.8c0,4.1,3.6,7.3,8,7.3s8-3.3,8-7.3V39.5C72,35.4,68.4,32.2,64,32.2z
					 M64,0.3C28.7,0.3,0,28.8,0,64c0,35.2,28.7,63.7,64,63.7c35.3,0,64-28.5,64-63.7C128,28.8,99.3,0.3,64,0.3z M64,121.3
					C32.2,121.3,6.4,95.7,6.4,64C6.4,32.3,32.2,6.7,64,6.7c31.8,0,57.6,25.7,57.6,57.3C121.6,95.7,95.8,121.3,64,121.3z M64,81.2
					c-4.4,0-8,3.3-8,7.3s3.6,7.3,8,7.3s8-3.3,8-7.3S68.4,81.2,64,81.2z"/>
	</g>
</svg>
