<?xml version="1.0" encoding="utf-8"?>
<svg version="1.1" xmlns="http://www.w3.org/2000/svg" xmlns:xlink="http://www.w3.org/1999/xlink"
	 viewBox="0 0 128 128" xml:space="preserve">
	<g>
		<path d="M64,0.3C28.7,0.3,0,28.8,0,64c0,35.2,28.7,63.7,64,63.7c35.3,0,64-28.5,64-63.7C128,28.8,99.3,0.3,64,0.3z
					 M64,121.3C32.2,121.3,6.4,95.7,6.4,64C6.4,32.3,32.2,6.7,64,6.7c12.1,0,23.4,3.7,32.7,10.1c13.7,9.4,23.1,24.5,24.7,41.8
					c0,0.5,0.1,9.8,0,10.7C118.7,98.5,94,121.3,64,121.3z M60.8,32.2c-14.5,0-19.1,13.3-19.2,25.5h9.6c-0.2-8.8,0.7-15.9,9.6-15.9
					c6.4,0,9.6,2.7,9.6,9.6c0,4.4-3.4,6.6-6.4,9.6c-6.2,6-5.7,10.4-6,18.7h8.4c0.3-7.5,0.2-7.3,6.4-13.9c4.2-4.1,7.1-8.2,7.1-14.5
					C80,41.2,74.6,32.2,60.8,32.2z M64.1,86.3c-3.6,0-6.4,2.9-6.4,6.4c0,3.5,2.9,6.4,6.4,6.4c3.6,0,6.4-2.9,6.4-6.4
					C70.5,89.1,67.6,86.3,64.1,86.3z"/>
	</g>
</svg>
